<?xml version="1.0" encoding="UTF-8" standalone="no"?>
<svg
        xmlns:inkscape="http://www.inkscape.org/namespaces/inkscape"
        xmlns:sodipodi="http://sodipodi.sourceforge.net/DTD/sodipodi-0.dtd"
        height="48"
        width="48"
        version="1.1"
        id="svg14"
        sodipodi:docname="mActionIdentify.svg"
        inkscape:version="1.2 (dc2aedaf03, 2022-05-15)"
        xmlns="http://www.w3.org/2000/svg"
>
    <defs
            id="defs18"/>
    <sodipodi:namedview
            id="namedview16"
            pagecolor="#ffffff"
            bordercolor="#666666"
            borderopacity="1.0"
            inkscape:showpageshadow="2"
            inkscape:pageopacity="0.0"
            inkscape:pagecheckerboard="0"
            inkscape:deskcolor="#d1d1d1"
            showgrid="false"
            inkscape:zoom="10.886498"
            inkscape:cx="39.911825"
            inkscape:cy="26.960001"
            inkscape:window-width="1920"
            inkscape:window-height="1056"
            inkscape:window-x="0"
            inkscape:window-y="0"
            inkscape:window-maximized="1"
            inkscape:current-layer="layer1"/>
    <g
            inkscape:groupmode="layer"
            id="layer1"
            inkscape:label="Layer 1"
            style="display:inline">
        <g
                id="g184"
                transform="translate(-0.45329508,0.14048025)">
            <g
                    fill="#ffffff"
                    id="g12">
                <path
                        d="M 3.9078817,20.685686 C 4.3270667,15.864487 5.2685147,12.971997 8.2623647,9.9781472 11.495586,6.7449252 14.49001,5.2445642 20.147861,3.9572302 22.927538,3.3250172 18.112638,1.2290941 11.449774,3.7218682 7.8706667,5.0607402 4.2377317,8.5550932 2.9629967,13.64716 c -1.5444549,6.165223 0.753044,9.246119 0.944885,7.038526 z"
                        opacity="0.3"
                        id="path4"/>
                <path
                        d="m 45.323671,32.905232 -22.310674,-14.209237 9.580075,25.794352 3.814307,-6.17746 7.541837,8.245634 2.856281,-2.783856 -7.710506,-8.166641 6.228682,-2.702792 z"
                        fill-rule="evenodd"
                        stroke="#000000"
                        stroke-linecap="round"
                        stroke-linejoin="round"
                        stroke-width="1.2"
                        id="path10"
                        sodipodi:nodetypes="ccccccccc"
                        style="fill:#ff0000"/>
            </g>
        </g>
        <path
                d="M 1.8796129,1.7137236 V 46.341063 M 11.279613,1.7137236 V 46.341063 m 9.4,-44.6273394 V 46.341063 m 9.4,-44.6273394 V 46.341063 m 9.4,-44.6273394 V 46.341063 M 1.8796129,1.7137236 H 46.853003 M 1.8796129,11.113724 H 46.853003 m -44.9733901,9.4 H 46.853003 m -44.9733901,9.4 H 46.853003 m -44.9733901,9.4 H 46.853003 M 2.0528768,46.29945 H 47.026267 M 46.758914,1.6278978 V 46.255237"
                style="fill:none;stroke:#000000;stroke-width:0.5px"
                id="path200"
                sodipodi:nodetypes="cccccccccccccccccccccccc"/>
    </g>
    <g
            inkscape:groupmode="layer"
            id="layer2"
            inkscape:label="Layer 2"/>
</svg>
